
<svg width="200" height="200" viewBox="0 0 200 200" fill="none" xmlns="http://www.w3.org/2000/svg">
  <defs>
    <linearGradient id="logoGradient" x1="0%" y1="0%" x2="100%" y2="100%">
      <stop offset="0%" style="stop-color:#3B82F6;stop-opacity:1" />
      <stop offset="50%" style="stop-color:#8B5CF6;stop-opacity:1" />
      <stop offset="100%" style="stop-color:#EC4899;stop-opacity:1" />
    </linearGradient>
  </defs>
  <path d="M50 60C30 60 20 80 20 100C20 120 30 140 50 140C70 140 80 120 80 100C80 90 85 85 95 85C105 85 110 90 110 100C110 120 120 140 140 140C160 140 170 120 170 100C170 80 160 60 140 60C120 60 110 80 110 100C110 110 105 115 95 115C85 115 80 110 80 100C80 80 70 60 50 60Z" fill="url(#logoGradient)"/>
</svg>
